<mxfile host="app.diagrams.net" modified="2021-01-04T03:24:51.664Z" agent="5.0 (Macintosh)" etag="HyhWus1XHdDpKU1huM3E" version="14.1.4" type="github">
  <diagram id="JvHWomXTufXELanwR_23" name="第 1 页">
    <mxGraphModel dx="1026" dy="500" grid="1" gridSize="10" guides="1" tooltips="1" connect="1" arrows="1" fold="1" page="1" pageScale="1" pageWidth="850" pageHeight="1100" math="0" shadow="0">
      <root>
        <mxCell id="0" />
        <mxCell id="1" parent="0" />
        <mxCell id="sVGBowNL3PxadWzg95NV-1" value="在线服务" style="rounded=0;whiteSpace=wrap;html=1;" vertex="1" parent="1">
          <mxGeometry x="540" y="170" width="120" height="60" as="geometry" />
        </mxCell>
        <mxCell id="sVGBowNL3PxadWzg95NV-2" value="外部用户" style="shape=umlActor;verticalLabelPosition=bottom;verticalAlign=top;html=1;outlineConnect=0;" vertex="1" parent="1">
          <mxGeometry x="70" y="170" width="30" height="60" as="geometry" />
        </mxCell>
        <mxCell id="sVGBowNL3PxadWzg95NV-9" value="" style="edgeStyle=orthogonalEdgeStyle;rounded=0;orthogonalLoop=1;jettySize=auto;html=1;" edge="1" parent="1" source="sVGBowNL3PxadWzg95NV-4" target="sVGBowNL3PxadWzg95NV-6">
          <mxGeometry relative="1" as="geometry" />
        </mxCell>
        <mxCell id="sVGBowNL3PxadWzg95NV-4" value="反向代理服务" style="whiteSpace=wrap;html=1;aspect=fixed;" vertex="1" parent="1">
          <mxGeometry x="220" y="160" width="80" height="80" as="geometry" />
        </mxCell>
        <mxCell id="sVGBowNL3PxadWzg95NV-5" value="访问在线服务" style="endArrow=classic;html=1;entryX=0;entryY=0.5;entryDx=0;entryDy=0;" edge="1" parent="1" source="sVGBowNL3PxadWzg95NV-2" target="sVGBowNL3PxadWzg95NV-4">
          <mxGeometry width="50" height="50" relative="1" as="geometry">
            <mxPoint x="400" y="290" as="sourcePoint" />
            <mxPoint x="450" y="240" as="targetPoint" />
          </mxGeometry>
        </mxCell>
        <mxCell id="sVGBowNL3PxadWzg95NV-10" value="" style="edgeStyle=orthogonalEdgeStyle;rounded=0;orthogonalLoop=1;jettySize=auto;html=1;" edge="1" parent="1" source="sVGBowNL3PxadWzg95NV-6" target="sVGBowNL3PxadWzg95NV-1">
          <mxGeometry relative="1" as="geometry" />
        </mxCell>
        <mxCell id="sVGBowNL3PxadWzg95NV-11" value="正常用户" style="edgeLabel;html=1;align=center;verticalAlign=middle;resizable=0;points=[];" vertex="1" connectable="0" parent="sVGBowNL3PxadWzg95NV-10">
          <mxGeometry x="-0.4" y="1" relative="1" as="geometry">
            <mxPoint x="13" y="1" as="offset" />
          </mxGeometry>
        </mxCell>
        <mxCell id="sVGBowNL3PxadWzg95NV-12" value="" style="edgeStyle=orthogonalEdgeStyle;rounded=0;orthogonalLoop=1;jettySize=auto;html=1;entryX=0.5;entryY=0;entryDx=0;entryDy=0;" edge="1" parent="1" source="sVGBowNL3PxadWzg95NV-6" target="sVGBowNL3PxadWzg95NV-19">
          <mxGeometry relative="1" as="geometry">
            <mxPoint x="410" y="300" as="targetPoint" />
          </mxGeometry>
        </mxCell>
        <mxCell id="sVGBowNL3PxadWzg95NV-20" value="可疑或异常用户" style="edgeLabel;html=1;align=center;verticalAlign=middle;resizable=0;points=[];" vertex="1" connectable="0" parent="sVGBowNL3PxadWzg95NV-12">
          <mxGeometry x="-0.3" y="-1" relative="1" as="geometry">
            <mxPoint as="offset" />
          </mxGeometry>
        </mxCell>
        <mxCell id="sVGBowNL3PxadWzg95NV-6" value="风险评估" style="rhombus;whiteSpace=wrap;html=1;" vertex="1" parent="1">
          <mxGeometry x="370" y="160" width="80" height="80" as="geometry" />
        </mxCell>
        <mxCell id="sVGBowNL3PxadWzg95NV-17" value="" style="edgeStyle=segmentEdgeStyle;endArrow=classic;html=1;entryX=0.5;entryY=1;entryDx=0;entryDy=0;exitX=1;exitY=0.5;exitDx=0;exitDy=0;" edge="1" parent="1" source="sVGBowNL3PxadWzg95NV-19" target="sVGBowNL3PxadWzg95NV-1">
          <mxGeometry width="50" height="50" relative="1" as="geometry">
            <mxPoint x="470" y="340" as="sourcePoint" />
            <mxPoint x="520" y="290" as="targetPoint" />
          </mxGeometry>
        </mxCell>
        <mxCell id="sVGBowNL3PxadWzg95NV-18" value="对抗成功" style="text;html=1;align=center;verticalAlign=middle;resizable=0;points=[];autosize=1;" vertex="1" parent="1">
          <mxGeometry x="540" y="310" width="60" height="20" as="geometry" />
        </mxCell>
        <mxCell id="sVGBowNL3PxadWzg95NV-19" value="人机对抗服务" style="whiteSpace=wrap;html=1;aspect=fixed;" vertex="1" parent="1">
          <mxGeometry x="370" y="300" width="80" height="80" as="geometry" />
        </mxCell>
        <mxCell id="sVGBowNL3PxadWzg95NV-24" value="" style="edgeStyle=orthogonalEdgeStyle;rounded=0;orthogonalLoop=1;jettySize=auto;html=1;exitX=0.5;exitY=1;exitDx=0;exitDy=0;entryX=0.5;entryY=0;entryDx=0;entryDy=0;" edge="1" parent="1" source="sVGBowNL3PxadWzg95NV-26" target="sVGBowNL3PxadWzg95NV-28">
          <mxGeometry relative="1" as="geometry">
            <mxPoint x="455" y="700" as="targetPoint" />
          </mxGeometry>
        </mxCell>
        <mxCell id="sVGBowNL3PxadWzg95NV-25" value="访问在线服务" style="edgeLabel;html=1;align=center;verticalAlign=middle;resizable=0;points=[];" vertex="1" connectable="0" parent="sVGBowNL3PxadWzg95NV-24">
          <mxGeometry x="-0.0545" y="-1" relative="1" as="geometry">
            <mxPoint as="offset" />
          </mxGeometry>
        </mxCell>
        <mxCell id="sVGBowNL3PxadWzg95NV-22" value="Actor" style="shape=umlActor;verticalLabelPosition=bottom;verticalAlign=top;html=1;" vertex="1" parent="1">
          <mxGeometry x="70" y="480" width="30" height="60" as="geometry" />
        </mxCell>
        <mxCell id="sVGBowNL3PxadWzg95NV-26" value="外部用户" style="rounded=1;whiteSpace=wrap;html=1;" vertex="1" parent="1">
          <mxGeometry x="400" y="560" width="120" height="60" as="geometry" />
        </mxCell>
        <mxCell id="sVGBowNL3PxadWzg95NV-30" value="" style="edgeStyle=orthogonalEdgeStyle;rounded=0;orthogonalLoop=1;jettySize=auto;html=1;" edge="1" parent="1" source="sVGBowNL3PxadWzg95NV-28" target="sVGBowNL3PxadWzg95NV-29">
          <mxGeometry relative="1" as="geometry" />
        </mxCell>
        <mxCell id="sVGBowNL3PxadWzg95NV-37" value="可疑用户" style="edgeLabel;html=1;align=center;verticalAlign=middle;resizable=0;points=[];" vertex="1" connectable="0" parent="sVGBowNL3PxadWzg95NV-30">
          <mxGeometry x="-0.4333" y="2" relative="1" as="geometry">
            <mxPoint as="offset" />
          </mxGeometry>
        </mxCell>
        <mxCell id="sVGBowNL3PxadWzg95NV-28" value="反向代理服务" style="rounded=1;whiteSpace=wrap;html=1;" vertex="1" parent="1">
          <mxGeometry x="400" y="680" width="120" height="60" as="geometry" />
        </mxCell>
        <mxCell id="sVGBowNL3PxadWzg95NV-32" value="" style="edgeStyle=orthogonalEdgeStyle;rounded=0;orthogonalLoop=1;jettySize=auto;html=1;" edge="1" parent="1" source="sVGBowNL3PxadWzg95NV-29" target="sVGBowNL3PxadWzg95NV-31">
          <mxGeometry relative="1" as="geometry" />
        </mxCell>
        <mxCell id="sVGBowNL3PxadWzg95NV-38" value="验证通过" style="edgeLabel;html=1;align=center;verticalAlign=middle;resizable=0;points=[];" vertex="1" connectable="0" parent="sVGBowNL3PxadWzg95NV-32">
          <mxGeometry x="-0.24" y="1" relative="1" as="geometry">
            <mxPoint as="offset" />
          </mxGeometry>
        </mxCell>
        <mxCell id="sVGBowNL3PxadWzg95NV-29" value="人机对抗服务" style="rounded=1;whiteSpace=wrap;html=1;" vertex="1" parent="1">
          <mxGeometry x="400" y="800" width="120" height="60" as="geometry" />
        </mxCell>
        <mxCell id="sVGBowNL3PxadWzg95NV-31" value="在线服务" style="rounded=1;whiteSpace=wrap;html=1;" vertex="1" parent="1">
          <mxGeometry x="400" y="910" width="120" height="60" as="geometry" />
        </mxCell>
        <mxCell id="sVGBowNL3PxadWzg95NV-33" value="Label" style="endArrow=classic;html=1;entryX=0;entryY=0.5;entryDx=0;entryDy=0;exitX=0;exitY=0.65;exitDx=0;exitDy=0;exitPerimeter=0;" edge="1" parent="1" source="sVGBowNL3PxadWzg95NV-28" target="sVGBowNL3PxadWzg95NV-31">
          <mxGeometry relative="1" as="geometry">
            <mxPoint x="230" y="720" as="sourcePoint" />
            <mxPoint x="390" y="720" as="targetPoint" />
            <Array as="points">
              <mxPoint x="360" y="719" />
              <mxPoint x="360" y="940" />
            </Array>
          </mxGeometry>
        </mxCell>
        <mxCell id="sVGBowNL3PxadWzg95NV-34" value="正常用户" style="edgeLabel;resizable=0;html=1;align=center;verticalAlign=middle;" connectable="0" vertex="1" parent="sVGBowNL3PxadWzg95NV-33">
          <mxGeometry relative="1" as="geometry" />
        </mxCell>
      </root>
    </mxGraphModel>
  </diagram>
</mxfile>
